<svg width="15" height="15" viewBox="0 0 15 15" fill="none" xmlns="http://www.w3.org/2000/svg">
<path d="M7.94093 7.32766L14.8249 0.435656C14.8727 0.387349 14.8996 0.322126 14.8996 0.254156C14.8996 0.186186 14.8727 0.120962 14.8249 0.0726557C14.7759 0.0259314 14.7108 -9.28862e-05 14.6431 2.49123e-07C14.5754 9.33845e-05 14.5103 0.026297 14.4614 0.0731559L7.57843 6.96466L0.694425 0.0726557C0.645281 0.0264609 0.580372 0.000743161 0.512925 0.000743161C0.445478 0.000743161 0.380569 0.0264609 0.331425 0.0726557C0.283641 0.120877 0.256832 0.186018 0.256832 0.253906C0.256832 0.321793 0.283641 0.386934 0.331425 0.435156L7.21593 7.32766L0.331925 14.2197C0.306664 14.2431 0.286394 14.2714 0.272325 14.3029C0.258256 14.3344 0.250678 14.3684 0.250043 14.4029C0.249409 14.4373 0.255731 14.4716 0.268632 14.5036C0.281532 14.5355 0.300747 14.5646 0.325127 14.589C0.349507 14.6133 0.378553 14.6325 0.410527 14.6455C0.442501 14.6584 0.476748 14.6647 0.511221 14.664C0.545694 14.6634 0.579685 14.6558 0.611163 14.6418C0.642641 14.6277 0.670959 14.6074 0.694425 14.5822L7.57843 7.69066L14.4619 14.5827C14.4857 14.6065 14.514 14.6254 14.5451 14.6383C14.5762 14.6512 14.6096 14.6579 14.6432 14.6579C14.6769 14.6579 14.7103 14.6513 14.7414 14.6385C14.7726 14.6256 14.8008 14.6067 14.8247 14.5829C14.8485 14.5591 14.8674 14.5308 14.8803 14.4997C14.8932 14.4686 14.8999 14.4353 14.8999 14.4016C14.9 14.3679 14.8933 14.3345 14.8805 14.3034C14.8676 14.2723 14.8487 14.244 14.8249 14.2202L7.94093 7.32766Z" fill="#FAFAFA"/>
</svg>
