<svg width="15" height="15" viewBox="0 0 15 15" fill="none" xmlns="http://www.w3.org/2000/svg">
<path d="M7.69093 7.32766L14.5749 0.435656C14.6227 0.387349 14.6496 0.322126 14.6496 0.254156C14.6496 0.186186 14.6227 0.120962 14.5749 0.0726557C14.5259 0.0259314 14.4608 -9.28862e-05 14.3931 2.49123e-07C14.3254 9.33845e-05 14.2603 0.026297 14.2114 0.0731559L7.32843 6.96466L0.444425 0.0726557C0.395281 0.0264609 0.330372 0.000743161 0.262925 0.000743161C0.195478 0.000743161 0.130569 0.0264609 0.0814255 0.0726557C0.0336406 0.120877 0.00683171 0.186018 0.00683171 0.253906C0.00683171 0.321793 0.0336406 0.386934 0.0814255 0.435156L6.96593 7.32766L0.0819255 14.2197C0.0566645 14.2431 0.0363939 14.2714 0.0223251 14.3029C0.00825628 14.3344 0.000678066 14.3684 4.34552e-05 14.4029C-0.000591156 14.4373 0.00573079 14.4716 0.0186315 14.5036C0.0315323 14.5355 0.0507468 14.5646 0.0751269 14.589C0.0995071 14.6133 0.128553 14.6325 0.160527 14.6455C0.192501 14.6584 0.226748 14.6647 0.261221 14.664C0.295694 14.6634 0.329685 14.6558 0.361163 14.6418C0.392641 14.6277 0.420959 14.6074 0.444425 14.5822L7.32843 7.69066L14.2119 14.5827C14.2357 14.6065 14.264 14.6254 14.2951 14.6383C14.3262 14.6512 14.3596 14.6579 14.3932 14.6579C14.4269 14.6579 14.4603 14.6513 14.4914 14.6385C14.5226 14.6256 14.5508 14.6067 14.5747 14.5829C14.5985 14.5591 14.6174 14.5308 14.6303 14.4997C14.6432 14.4686 14.6499 14.4353 14.6499 14.4016C14.65 14.3679 14.6433 14.3345 14.6305 14.3034C14.6176 14.2723 14.5987 14.244 14.5749 14.2202L7.69093 7.32766Z" fill="#262626"/>
</svg>
