<svg width="55" height="50" viewBox="0 0 55 50" fill="none" xmlns="http://www.w3.org/2000/svg">
<path d="M52.5 30.0001H50C50 20.3261 42.175 12.5019 32.5 12.5019H30V9.32722C30.7603 8.88831 31.3916 8.25698 31.8304 7.49672C32.2693 6.73646 32.5002 5.87406 32.5 4.99625C32.4998 4.11844 32.2684 3.25616 31.8292 2.49612C31.3899 1.73609 30.7583 1.10509 29.9978 0.66657C29.2373 0.228054 28.3747 -0.0025147 27.4968 -0.0019521C26.6189 -0.0013895 25.7566 0.230285 24.9967 0.669775C24.2367 1.10926 23.6059 1.74108 23.1676 2.50168C22.7294 3.26227 22.4991 4.12485 22.5 5.00266C22.5 6.85247 23.5 8.4773 25 9.32722V12.5019H22.5C12.825 12.5019 5 20.3261 5 30.0001H2.5C1.125 30.0001 0 31.125 0 32.4998V39.9991C0 41.3739 1.125 42.4988 2.5 42.4988H5V44.9986C5 46.3245 5.52678 47.5961 6.46447 48.5337C7.40215 49.4713 8.67392 49.998 10 49.998H45C47.775 49.998 50 47.7733 50 44.9986V42.4988H52.5C53.875 42.4988 55 41.3739 55 39.9991V32.4998C55 31.125 53.875 30.0001 52.5 30.0001ZM22.15 36.6994L19.2 39.6491L16.25 36.6994L13.3 39.6491L10.35 36.6994L13.3 33.7497L10.35 30.8L13.3 27.8503L16.25 30.8L19.2 27.8503L22.15 30.8L19.2 33.7497L22.15 36.6994ZM44.65 36.6994L41.7 39.6491L38.75 36.6994L35.8 39.6491L32.85 36.6994L35.8 33.7497L32.85 30.8L35.8 27.8503L38.75 30.8L41.7 27.8503L44.65 30.8L41.7 33.7497L44.65 36.6994Z" fill="#0E61FE"/>
</svg>
