<svg width="55" height="50" viewBox="0 0 55 50" fill="none" xmlns="http://www.w3.org/2000/svg">
<path d="M52.5 30.002H50C50 20.328 42.175 12.5038 32.5 12.5038H30V9.32917C30.7603 8.89026 31.3916 8.25894 31.8304 7.49867C32.2693 6.73841 32.5002 5.87601 32.5 4.9982C32.4998 4.12039 32.2684 3.25812 31.8292 2.49808C31.3899 1.73804 30.7583 1.10704 29.9978 0.668523C29.2373 0.230008 28.3747 -0.000561575 27.4968 1.02712e-06C26.6189 0.000563629 25.7566 0.232238 24.9967 0.671728C24.2367 1.11122 23.6059 1.74303 23.1676 2.50363C22.7294 3.26423 22.4991 4.1268 22.5 5.00461C22.5 6.85442 23.5 8.47926 25 9.32917V12.5038H22.5C12.825 12.5038 5 20.328 5 30.002H2.5C1.125 30.002 0 31.1269 0 32.5018V40.001C0 41.3759 1.125 42.5008 2.5 42.5008H5V45.0005C5 46.3265 5.52678 47.5981 6.46447 48.5357C7.40215 49.4733 8.67392 50 10 50H45C47.775 50 50 47.7752 50 45.0005V42.5008H52.5C53.875 42.5008 55 41.3759 55 40.001V32.5018C55 31.1269 53.875 30.002 52.5 30.002ZM22.15 36.7014L19.2 39.6511L16.25 36.7014L13.3 39.6511L10.35 36.7014L13.3 33.7517L10.35 30.802L13.3 27.8523L16.25 30.802L19.2 27.8523L22.15 30.802L19.2 33.7517L22.15 36.7014ZM44.65 36.7014L41.7 39.6511L38.75 36.7014L35.8 39.6511L32.85 36.7014L35.8 33.7517L32.85 30.802L35.8 27.8523L38.75 30.802L41.7 27.8523L44.65 30.802L41.7 33.7517L44.65 36.7014Z" fill="#2F79FF"/>
</svg>
