<svg width="26" height="37" viewBox="0 0 26 37" fill="none" xmlns="http://www.w3.org/2000/svg">
<g clip-path="url(#clip0_233_8)">
<path d="M21.24 0.600006C24.24 0.600006 25.96 2.48001 25.96 4.32001C25.96 6.00001 24.56 6.84001 22.12 6.72001C23.56 3.40001 22.04 1.40001 20.64 1.40001C19.72 1.40001 18.84 2.24001 18.84 4.12001V9.00001H25.64V9.88001H18.84V29H14.8V9.88001H11.2V9.00001H14.8V7.92001C14.8 1.92001 17.92 0.600006 21.24 0.600006Z" fill="#2E78FF"/>
<path d="M18.692 10.728V36H14.984V30.456C13.796 33.228 11.276 36.36 7.856 36.36C-2.152 36.36 -2.908 18 10.304 18H14.984V10.728H18.692ZM14.984 18.792H12.716C2.348 18.792 1.916 33.984 9.368 33.984C12.5 33.984 14.984 29.988 14.984 28.116V18.792Z" fill="#2E78FF"/>
</g>
<defs>
<clipPath id="clip0_233_8">
<rect width="26" height="37" fill="white"/>
</clipPath>
</defs>
</svg>
