<svg width="16" height="16" viewBox="0 0 16 16" fill="none" xmlns="http://www.w3.org/2000/svg">
<g clip-path="url(#clip0_340_5)">
<path d="M13.8037 2.11701C12.3191 -0.00948524 9.38624 -0.639735 7.26624 0.712015L3.54224 3.08701C3.03832 3.40319 2.60593 3.82106 2.27274 4.3139C1.93954 4.80674 1.71288 5.36369 1.60724 5.94914C1.56015 6.21188 1.53618 6.47986 1.53574 6.74864C1.53801 7.47749 1.71654 8.19497 2.05612 8.83989C1.73779 9.32397 1.52056 9.86739 1.41749 10.4375C1.31187 11.0335 1.32666 11.6513 1.46062 12.239C1.59472 12.8306 1.84544 13.3895 2.19812 13.883C3.68287 16.0093 6.62237 16.6396 8.73562 15.288L12.4559 12.9129C12.9595 12.5963 13.3913 12.1779 13.7236 11.6845C14.056 11.1912 14.2815 10.6338 14.3856 10.0481C14.4335 9.78476 14.4574 9.51758 14.4571 9.24989C14.4562 8.52245 14.2799 7.80595 13.9431 7.16114C14.2614 6.6775 14.4788 6.13457 14.5821 5.56489C14.6282 5.30114 14.6517 5.03426 14.6524 4.76664C14.6527 3.81733 14.356 2.8917 13.804 2.11939L13.8037 2.11701Z" fill="#FF3E00"/>
<path d="M6.90238 14.0828C6.65776 14.1458 6.4083 14.1777 6.15813 14.1778C5.68042 14.1777 5.20985 14.0618 4.78674 13.84C4.36364 13.6183 4.0006 13.2972 3.72875 12.9044C3.39682 12.4397 3.21849 11.8829 3.21875 11.3119C3.21896 11.1509 3.23291 10.9903 3.26038 10.8328C3.28275 10.7142 3.31284 10.5979 3.35038 10.485L3.4205 10.2715L3.6105 10.416C4.05152 10.7398 4.54426 10.9863 5.06775 11.1453L5.20575 11.1869L5.19275 11.3249V11.3965C5.19249 11.5692 5.24615 11.7376 5.34625 11.8783C5.42714 11.998 5.53604 12.0962 5.6635 12.1643C5.79402 12.2331 5.93498 12.2688 6.0775 12.2689C6.15273 12.2692 6.22776 12.2596 6.30125 12.2403C6.38102 12.2194 6.45809 12.1857 6.53038 12.14L10.2504 9.75327C10.3619 9.68244 10.4537 9.58451 10.5172 9.46862C10.5807 9.35273 10.6137 9.22266 10.6134 9.09052C10.6123 8.91785 10.5572 8.74983 10.4559 8.61002C10.3738 8.49183 10.2643 8.39525 10.1368 8.32852C10.0062 8.26114 9.86547 8.22668 9.72338 8.22727C9.64814 8.22701 9.57311 8.23665 9.49963 8.25602C9.42018 8.27641 9.34352 8.31011 9.27188 8.35615L7.85363 9.2624C7.61494 9.41278 7.36072 9.52442 7.09763 9.5944C6.51175 9.74695 5.89316 9.71587 5.32552 9.50536C4.75789 9.29485 4.26861 8.91507 3.92388 8.4174C3.59224 7.9526 3.41395 7.39588 3.41388 6.8249C3.41413 6.66427 3.42813 6.50402 3.4555 6.34577C3.51911 5.9939 3.65513 5.65908 3.85495 5.36255C4.05476 5.06601 4.31401 4.81422 4.61625 4.62315L8.34025 2.2494C8.57393 2.10066 8.82883 1.98826 9.09625 1.91602C9.33943 1.85376 9.58947 1.82226 9.8405 1.82227C10.3192 1.82126 10.791 1.93636 11.2154 2.15771C11.6399 2.37905 12.0043 2.70004 12.2775 3.09315C12.6071 3.55905 12.7832 4.11619 12.7811 4.6869C12.7809 4.84836 12.7669 5.00936 12.7394 5.1674C12.7171 5.28592 12.6871 5.40216 12.6496 5.51502L12.5794 5.72852L12.3894 5.58927C11.9487 5.26491 11.4559 5.01827 10.9321 4.86002L10.7941 4.81715L10.8071 4.67902V4.60752C10.8071 4.43449 10.7535 4.26572 10.6536 4.1244C10.5717 4.00621 10.4623 3.90969 10.3349 3.84315C10.2046 3.77576 10.0642 3.74117 9.92238 3.74152C9.84782 3.74313 9.77364 3.75449 9.70113 3.7754C9.62124 3.79547 9.54416 3.82923 9.47225 3.87565L5.74813 6.2494C5.65982 6.30453 5.58174 6.38065 5.51863 6.47315C5.45973 6.5595 5.4185 6.66127 5.39825 6.77027C5.38906 6.81555 5.38337 6.86174 5.38125 6.90827C5.38116 7.08051 5.43482 7.24848 5.53475 7.38877C5.61661 7.50694 5.72596 7.60346 5.85338 7.67002C5.9837 7.73743 6.12413 7.77197 6.266 7.77152C6.34123 7.77179 6.41626 7.76215 6.48975 7.74277C6.56966 7.72253 6.6468 7.68882 6.71888 7.64265L8.13975 6.73115C8.37834 6.58051 8.63259 6.46886 8.89575 6.39915C9.14038 6.33617 9.38983 6.30433 9.64 6.30415C10.1178 6.30407 10.5885 6.41976 11.0118 6.6413C11.4351 6.86285 11.7985 7.18365 12.0708 7.57627C12.2831 7.87383 12.4338 8.21084 12.514 8.56748C12.5942 8.92412 12.6023 9.2932 12.5379 9.65302C12.4746 10.005 12.3388 10.34 12.1389 10.6366C11.9391 10.9332 11.6796 11.1849 11.3771 11.3756L7.65963 13.7494C7.42069 13.9005 7.16594 14.0126 6.90238 14.0828Z" fill="white"/>
</g>
<defs>
<clipPath id="clip0_340_5">
<rect width="16" height="16" fill="white"/>
</clipPath>
</defs>
</svg>
